<?xml version="1.0" standalone="no"?>
<!DOCTYPE svg PUBLIC "-//W3C//DTD SVG 20010904//EN"
 "http://www.w3.org/TR/2001/REC-SVG-20010904/DTD/svg10.dtd">
<svg version="1.0" xmlns="http://www.w3.org/2000/svg"
 width="1000.000000pt" height="205.000000pt" viewBox="0 0 1000.000000 205.000000"
 preserveAspectRatio="xMidYMid meet" fill="#fff">
<metadata>
Created by potrace 1.16, written by Peter Selinger 2001-2019
</metadata>
<g transform="translate(0.000000,205.000000) scale(0.100000,-0.100000)"
fill="#fff" stroke="none">
<path d="M4650 2025 c-192 -62 -346 -210 -418 -403 -34 -90 -43 -275 -18 -372
48 -188 171 -342 341 -428 186 -93 390 -94 585 0 70 33 100 56 170 127 96 97
148 186 176 306 24 103 16 266 -19 363 -68 193 -233 351 -431 411 -101 31
-283 29 -386 -4z m350 -30 c196 -52 357 -201 426 -396 23 -63 27 -91 28 -189
1 -96 -3 -127 -22 -185 -35 -103 -77 -172 -156 -250 -123 -122 -255 -176 -432
-177 -86 0 -114 5 -186 29 -359 124 -522 531 -346 866 68 130 226 256 373 298
76 22 239 24 315 4z"/>
<path d="M4692 1506 c-73 -129 -132 -239 -132 -245 0 -6 10 -11 23 -11 19 0
41 32 142 210 66 115 122 210 125 209 3 0 51 -82 107 -182 l102 -182 -152 -3
c-129 -2 -154 -5 -164 -19 -7 -9 -13 -20 -13 -25 0 -4 93 -8 206 -8 173 0 205
2 202 14 -2 8 -61 118 -133 245 -117 207 -133 231 -156 231 -23 0 -39 -24
-157 -234z"/>
<path d="M4552 1098 l3 -23 293 -3 292 -2 0 25 0 25 -296 0 -295 0 3 -22z"/>
<path d="M6461 509 c-74 -22 -111 -67 -111 -134 0 -81 41 -114 175 -140 43 -8
88 -21 100 -29 48 -32 33 -119 -25 -148 -81 -41 -179 -11 -207 62 -13 32 -21
40 -41 40 -22 0 -24 -3 -18 -32 8 -41 33 -77 76 -105 44 -30 167 -33 220 -4
69 36 96 112 67 183 -19 46 -56 65 -159 83 -91 16 -125 34 -134 70 -15 62 39
115 116 115 68 0 120 -41 120 -95 0 -9 10 -15 25 -15 21 0 25 5 25 28 0 37
-33 88 -70 107 -40 21 -115 27 -159 14z"/>
<path d="M9066 506 c-21 -8 -56 -31 -77 -52 -54 -52 -72 -113 -67 -222 4 -101
24 -149 82 -196 35 -28 45 -31 124 -34 78 -3 91 -1 121 20 41 28 68 63 77 100
5 25 3 28 -20 28 -19 0 -27 -6 -32 -24 -11 -45 -58 -79 -117 -84 -84 -7 -142
33 -172 117 -32 92 -10 213 49 270 29 28 45 35 89 39 73 6 121 -17 144 -69 12
-29 23 -39 40 -39 29 0 29 18 3 70 -36 71 -157 108 -244 76z"/>
<path d="M146 418 c-165 -431 -162 -422 -124 -416 19 2 29 19 53 85 l30 83
102 0 101 0 33 -85 c27 -74 35 -85 55 -85 13 0 24 5 24 12 0 6 -41 121 -92
255 -89 235 -93 243 -119 243 -25 0 -30 -7 -63 -92z m105 -96 l37 -97 -75 -3
c-42 -2 -78 -1 -80 2 -3 2 12 49 33 105 21 55 41 97 44 95 3 -3 21 -49 41
-102z"/>
<path d="M700 255 l0 -255 155 0 155 0 0 25 0 25 -130 0 -130 0 0 230 0 230
-25 0 -25 0 0 -255z"/>
<path d="M1427 503 c-9 -15 -187 -485 -187 -494 0 -5 11 -9 24 -9 21 0 28 11
57 85 l32 85 101 0 101 0 31 -83 c27 -72 34 -82 57 -85 15 -2 27 0 27 5 0 4
-42 118 -93 253 -87 228 -95 245 -119 248 -14 2 -28 0 -31 -5z m107 -271 c5
-9 -13 -12 -77 -12 l-85 0 41 110 41 109 36 -97 c20 -54 39 -103 44 -110z"/>
<path d="M1940 256 l0 -256 25 0 25 0 2 195 3 195 86 -192 c67 -151 90 -194
106 -196 17 -3 32 24 104 184 l84 187 3 -186 2 -187 25 0 25 0 0 256 0 255
-27 -3 c-24 -3 -34 -21 -117 -211 -50 -114 -93 -207 -96 -207 -3 0 -47 93 -97
208 -89 201 -92 207 -122 210 l-31 3 0 -255z"/>
<path d="M2760 255 l0 -255 165 0 165 0 0 25 0 25 -137 0 -138 0 0 95 0 95
128 0 c127 0 128 0 125 23 -3 21 -8 22 -128 27 l-125 5 0 83 0 82 138 0 137 0
0 25 0 25 -165 0 -165 0 0 -255z"/>
<path d="M3390 255 l0 -257 118 4 c155 6 207 32 258 128 15 27 19 56 19 130 0
118 -23 167 -99 215 -47 28 -56 30 -173 34 l-123 3 0 -257z m266 179 c68 -50
95 -138 75 -237 -23 -107 -82 -147 -220 -147 l-71 0 0 206 0 206 94 -4 c76 -2
100 -7 122 -24z"/>
<path d="M4122 268 c-50 -134 -92 -249 -92 -256 0 -6 11 -12 24 -12 20 0 27
11 53 83 l30 82 103 0 103 0 31 -82 c26 -70 34 -83 53 -83 12 0 24 3 26 8 2 4
-38 117 -89 252 -89 237 -93 245 -121 248 -28 3 -28 3 -121 -240z m198 -44 c0
-2 -36 -4 -80 -4 -44 0 -80 1 -80 3 0 2 42 113 72 187 9 23 13 15 49 -79 21
-57 39 -105 39 -107z"/>
<path d="M5090 256 l0 -256 25 0 25 0 0 105 0 105 69 0 70 0 56 -105 c48 -89
60 -105 81 -105 13 0 24 6 24 13 0 6 -23 54 -50 106 -54 101 -57 111 -37 111
18 0 64 49 76 83 25 65 2 136 -56 174 -22 14 -53 19 -155 22 l-128 3 0 -256z
m249 189 c57 -29 62 -116 9 -160 -27 -23 -38 -25 -119 -25 l-89 0 0 100 0 100
85 0 c56 0 96 -5 114 -15z"/>
<path d="M5740 255 l0 -255 165 0 165 0 0 25 0 25 -140 0 -140 0 0 95 0 95
125 0 125 0 0 25 0 25 -125 0 -125 0 0 85 0 85 140 0 140 0 0 25 0 25 -165 0
-165 0 0 -255z"/>
<path d="M7002 258 l3 -253 165 0 c158 0 165 1 165 20 0 19 -8 20 -137 23
l-138 3 0 94 0 95 125 0 125 0 0 25 0 25 -125 0 -125 0 0 85 0 85 135 0 135 0
0 25 0 25 -165 0 -165 0 2 -252z"/>
<path d="M7775 498 c-3 -7 -45 -120 -95 -250 -49 -131 -90 -240 -90 -244 0 -3
12 -4 27 -2 23 3 30 13 57 85 l31 83 101 0 101 0 32 -85 c29 -74 36 -85 57
-85 13 0 24 3 24 8 1 4 -41 118 -92 255 -91 242 -93 247 -121 247 -15 0 -30
-6 -32 -12z m53 -113 c5 -16 21 -60 35 -97 l26 -68 -85 0 -85 0 14 28 c8 15
27 62 42 105 29 80 35 84 53 32z"/>
<path d="M8300 255 l0 -255 25 0 25 0 0 105 0 105 69 0 70 0 53 -102 c46 -89
57 -103 81 -106 15 -2 27 2 27 8 0 6 -24 56 -52 111 -38 72 -49 103 -40 106
58 22 100 103 87 166 -19 89 -74 116 -232 117 l-113 0 0 -255z m249 190 c33
-17 41 -33 41 -85 0 -27 -8 -48 -24 -67 -23 -26 -29 -28 -120 -31 l-96 -4 0
101 0 101 85 0 c56 0 96 -5 114 -15z"/>
<path d="M9630 255 l0 -255 25 0 25 0 0 120 0 120 138 0 137 0 0 -117 c0 -115
1 -118 23 -121 l22 -3 0 255 0 256 -25 0 -25 0 0 -110 0 -110 -135 0 -135 0 0
110 0 110 -25 0 -25 0 0 -255z"/>
</g>
</svg>
