<?xml version="1.0" encoding="utf-8"?>
<!-- Generator: Adobe Illustrator 24.0.3, SVG Export Plug-In . SVG Version: 6.00 Build 0)  -->
<svg version="1.1" id="图层_1" xmlns="http://www.w3.org/2000/svg" xmlns:xlink="http://www.w3.org/1999/xlink" x="0px" y="0px"
	 viewBox="0 0 260 40" style="enable-background:new 0 0 260 40;" xml:space="preserve">
<style type="text/css">
	.st0{clip-path:url(#SVGID_2_);}
	.st1{fill:#FFFFFF;}
	.st2{fill-rule:evenodd;clip-rule:evenodd;fill:#FFFFFF;}
</style>
<g>
	<defs>
		<rect id="SVGID_1_" width="259.4" height="40"/>
	</defs>
	<clipPath id="SVGID_2_">
		<use xlink:href="#SVGID_1_"  style="overflow:visible;"/>
	</clipPath>
	<g class="st0">
		<path class="st1" d="M65.1,27.1c-0.1-0.2-0.2-0.4-0.2-0.6c-0.1-0.2-0.1-0.5-0.2-0.8c-0.2,0.2-0.5,0.5-0.7,0.6
			c-0.3,0.2-0.6,0.4-0.9,0.5c-0.4,0.2-0.7,0.3-1.1,0.4c-0.4,0.1-0.9,0.1-1.3,0.1c-0.7,0-1.4-0.1-2.1-0.3c-0.6-0.2-1.2-0.5-1.6-0.9
			c-0.5-0.4-0.8-0.9-1.1-1.4c-0.3-0.6-0.4-1.2-0.4-1.8c0-1.6,0.6-2.8,1.8-3.6c1.2-0.9,2.9-1.3,5.2-1.3h2.1v-0.9c0-0.3,0-0.6-0.2-0.9
			c-0.1-0.3-0.3-0.6-0.5-0.8c-0.5-0.4-1.1-0.6-2-0.6c-0.8,0-1.3,0.2-1.7,0.5c-0.2,0.2-0.3,0.4-0.4,0.6c-0.1,0.2-0.1,0.5-0.1,0.7
			h-3.8c0-0.6,0.1-1.2,0.4-1.8c0.3-0.6,0.7-1.1,1.2-1.5c0.6-0.5,1.3-0.8,2-1c0.9-0.3,1.8-0.4,2.7-0.4c0.8,0,1.7,0.1,2.5,0.3
			c0.7,0.2,1.4,0.5,2,1c0.6,0.4,1,1,1.3,1.6c0.3,0.7,0.5,1.5,0.5,2.3v6.4c0,0.7,0,1.3,0.2,2c0.1,0.5,0.2,0.9,0.4,1.3v0.2L65.1,27.1z
			 M61.5,24.4c0.4,0,0.7,0,1.1-0.1c0.3-0.1,0.6-0.2,0.9-0.4c0.3-0.1,0.5-0.3,0.7-0.5c0.2-0.2,0.3-0.4,0.5-0.6v-2.6h-2
			c-0.5,0-1,0-1.5,0.2c-0.4,0.1-0.7,0.3-1,0.5c-0.3,0.2-0.5,0.4-0.6,0.7c-0.1,0.3-0.2,0.6-0.2,0.9c0,0.2,0,0.5,0.1,0.7
			c0.1,0.2,0.2,0.4,0.4,0.6C60.2,24.2,60.7,24.4,61.5,24.4z"/>
		<path class="st1" d="M85.5,11.9c0.5,0,1.1,0,1.6,0.1c0.4,0.1,0.8,0.1,1.2,0.3l-0.6,3.8c-0.5-0.1-1-0.2-1.5-0.3
			c-0.5-0.1-1-0.1-1.5-0.1c-0.9,0-1.8,0.2-2.6,0.6c-0.7,0.4-1.2,1-1.5,1.8v9h-3.8V12.2h3.6l0.2,2.4c0.6-0.8,1.3-1.5,2.2-2
			C83.6,12.1,84.6,11.9,85.5,11.9z"/>
		<path class="st1" d="M103.4,22.4l1.3-10.2h3.5l-2.7,14.9h-3.4l-2-9.5l-1.9,9.5H95l-2.7-14.9h3.5l1.3,10.3L99,12.2h2.6L103.4,22.4z
			"/>
		<path class="st1" d="M120.2,27.3c-1.1,0-2.1-0.2-3.1-0.6c-0.9-0.4-1.7-0.9-2.4-1.5c-0.7-0.6-1.2-1.4-1.5-2.3
			c-0.4-0.9-0.6-1.9-0.5-2.8v-0.6c0-1.1,0.2-2.1,0.5-3.1c0.3-0.9,0.8-1.7,1.5-2.4c0.6-0.7,1.4-1.2,2.3-1.6c1.8-0.7,3.9-0.8,5.8,0
			c0.8,0.3,1.5,0.9,2.1,1.5c0.6,0.7,1.1,1.5,1.3,2.3c0.3,1,0.5,2,0.5,3v1.6h-10.1c0.1,0.5,0.2,1,0.4,1.4c0.4,0.8,1.2,1.5,2.1,1.8
			c0.5,0.2,1,0.3,1.5,0.2c0.4,0,0.8,0,1.1-0.1c0.4-0.1,0.7-0.2,1.1-0.3c0.3-0.1,0.7-0.3,0.9-0.6c0.3-0.2,0.6-0.5,0.8-0.7l1.9,2.1
			c-0.3,0.4-0.6,0.7-0.9,1c-0.4,0.3-0.9,0.6-1.3,0.9c-0.6,0.3-1.1,0.5-1.7,0.6C121.5,27.2,120.9,27.3,120.2,27.3L120.2,27.3z
			 M119.7,15c-0.4,0-0.8,0.1-1.2,0.2c-0.4,0.2-0.7,0.4-0.9,0.7c-0.3,0.3-0.5,0.6-0.7,1c-0.2,0.4-0.3,0.9-0.4,1.3h6.3v-0.3
			c0-0.4-0.1-0.8-0.2-1.1c-0.1-0.3-0.3-0.7-0.6-0.9c-0.3-0.3-0.6-0.5-0.9-0.6C120.6,15.1,120.1,15,119.7,15z"/>
		<path class="st1" d="M141.3,27.1c-0.1-0.2-0.2-0.4-0.2-0.6c-0.1-0.2-0.1-0.5-0.2-0.8c-0.2,0.2-0.5,0.5-0.7,0.6
			c-0.3,0.2-0.6,0.4-0.9,0.5c-0.4,0.2-0.7,0.3-1.1,0.4c-0.4,0.1-0.9,0.1-1.3,0.1c-0.7,0-1.4-0.1-2.1-0.3c-0.6-0.2-1.2-0.5-1.6-0.9
			c-0.5-0.4-0.8-0.9-1.1-1.4c-0.3-0.6-0.4-1.2-0.4-1.8c0-1.6,0.6-2.8,1.8-3.6c1.2-0.9,2.9-1.3,5.2-1.3h2.1v-0.9c0-0.3,0-0.6-0.2-0.9
			c-0.1-0.3-0.3-0.6-0.5-0.8c-0.5-0.4-1.1-0.6-2-0.6c-0.8,0-1.4,0.2-1.7,0.5c-0.2,0.2-0.3,0.4-0.4,0.6c-0.1,0.2-0.1,0.5-0.1,0.7H132
			c0-0.6,0.1-1.2,0.4-1.8c0.3-0.6,0.7-1.1,1.2-1.5c0.6-0.5,1.3-0.8,2-1c0.9-0.3,1.8-0.4,2.7-0.4c0.9,0,1.7,0.1,2.5,0.3
			c0.7,0.2,1.4,0.5,2,1c0.6,0.4,1,1,1.3,1.6c0.3,0.7,0.5,1.5,0.5,2.3v6.4c0,0.7,0,1.3,0.2,2c0.1,0.5,0.2,0.9,0.4,1.3v0.2L141.3,27.1
			z M137.6,24.4c0.4,0,0.7,0,1.1-0.1c0.3-0.1,0.6-0.2,0.9-0.4c0.3-0.1,0.5-0.3,0.7-0.5c0.2-0.2,0.3-0.4,0.5-0.6v-2.6h-2
			c-0.5,0-1,0-1.5,0.2c-0.4,0.1-0.7,0.3-1,0.5c-0.3,0.2-0.5,0.5-0.6,0.7c-0.1,0.3-0.2,0.6-0.2,0.9c0,0.2,0,0.5,0.1,0.7
			c0.1,0.2,0.2,0.4,0.4,0.6C136.4,24.2,136.9,24.4,137.6,24.4L137.6,24.4z"/>
		<path class="st1" d="M157.4,22.6l0.2,1.1l0.2-1l3.3-10.5h4l-5.7,14.9h-3.6l-5.7-14.9h4L157.4,22.6z"/>
		<path class="st1" d="M177.3,27.3c-1.1,0-2.1-0.2-3.1-0.6c-0.9-0.4-1.7-0.9-2.4-1.5c-0.7-0.6-1.2-1.4-1.6-2.3
			c-0.4-0.9-0.6-1.9-0.5-2.8v-0.6c0-1.1,0.2-2.1,0.5-3.1c0.3-0.9,0.8-1.7,1.5-2.4c0.6-0.7,1.4-1.2,2.3-1.6c1.8-0.7,3.9-0.8,5.8,0
			c0.8,0.3,1.5,0.9,2.1,1.5c0.6,0.7,1.1,1.5,1.3,2.3c0.3,1,0.5,2,0.5,3v1.6h-10.1c0.1,0.5,0.2,1,0.4,1.4c0.4,0.8,1.2,1.5,2.1,1.8
			c0.5,0.2,1,0.3,1.5,0.2c0.4,0,0.8,0,1.1-0.1c0.4-0.1,0.7-0.2,1.1-0.3c0.3-0.1,0.7-0.3,0.9-0.6c0.3-0.2,0.6-0.5,0.8-0.7l1.9,2.1
			c-0.3,0.4-0.6,0.7-0.9,1c-0.4,0.3-0.9,0.6-1.4,0.9c-0.6,0.3-1.1,0.5-1.7,0.6C178.7,27.2,178,27.3,177.3,27.3z M176.8,15
			c-0.4,0-0.8,0.1-1.2,0.2c-0.4,0.1-0.7,0.4-0.9,0.7c-0.3,0.3-0.5,0.6-0.7,1c-0.2,0.4-0.3,0.9-0.4,1.3h6.3v-0.3
			c0-0.4-0.1-0.8-0.2-1.1c-0.1-0.3-0.3-0.7-0.6-0.9c-0.3-0.3-0.6-0.5-0.9-0.6C177.7,15.1,177.3,15,176.8,15z"/>
		<path class="st1" d="M193,24.8c0-0.3,0.1-0.7,0.2-1c0.1-0.3,0.3-0.6,0.5-0.8c0.2-0.2,0.5-0.4,0.8-0.5c0.7-0.3,1.5-0.3,2.2,0
			c0.3,0.1,0.6,0.3,0.8,0.5c0.2,0.2,0.4,0.5,0.5,0.8c0.1,0.3,0.2,0.7,0.2,1c0,0.3-0.1,0.7-0.2,1c-0.1,0.3-0.3,0.6-0.5,0.8
			c-0.2,0.2-0.5,0.4-0.8,0.5c-0.7,0.3-1.5,0.3-2.2,0c-0.3-0.1-0.6-0.3-0.8-0.5c-0.2-0.2-0.4-0.5-0.5-0.8C193,25.5,193,25.2,193,24.8
			z"/>
		<path class="st1" d="M207.6,19.5c0-1,0.1-2,0.5-3c0.3-0.9,0.8-1.7,1.4-2.4c0.6-0.7,1.4-1.2,2.2-1.6c1.9-0.8,4.1-0.8,6,0
			c0.8,0.4,1.6,0.9,2.2,1.6c0.6,0.7,1.1,1.5,1.4,2.4c0.3,1,0.5,2,0.5,3v0.3c0,1-0.1,2-0.5,3c-0.3,0.9-0.8,1.7-1.4,2.4
			c-0.6,0.7-1.4,1.2-2.2,1.6c-0.9,0.4-2,0.6-3,0.6c-1,0-2.1-0.2-3-0.6c-0.8-0.4-1.6-0.9-2.2-1.6c-0.6-0.7-1.1-1.5-1.4-2.4
			c-0.3-1-0.5-2-0.5-3L207.6,19.5z M211.5,19.8c0,0.6,0.1,1.2,0.2,1.8c0.1,0.5,0.3,1,0.6,1.4c0.3,0.4,0.6,0.8,1.1,1
			c0.4,0.2,0.9,0.3,1.4,0.3c0.5,0,1-0.1,1.4-0.4c0.4-0.2,0.7-0.6,1-1c0.3-0.4,0.5-0.9,0.6-1.4c0.1-0.6,0.2-1.2,0.2-1.8v-0.3
			c0-0.6-0.1-1.2-0.2-1.7c-0.1-0.5-0.3-1-0.6-1.4c-0.2-0.4-0.6-0.7-1-1c-0.6-0.4-1.4-0.5-2.2-0.3c-0.7,0.2-1.4,0.6-1.8,1.3
			c-0.3,0.4-0.5,0.9-0.6,1.4c-0.1,0.6-0.2,1.1-0.2,1.7L211.5,19.8z"/>
		<path class="st1" d="M237.9,11.9c0.5,0,1.1,0,1.6,0.1c0.4,0.1,0.8,0.1,1.2,0.3l-0.6,3.8c-0.5-0.1-1-0.2-1.5-0.3
			c-0.5-0.1-1-0.1-1.5-0.1c-0.9,0-1.8,0.2-2.6,0.6c-0.7,0.4-1.2,1-1.5,1.8v9h-3.8V12.2h3.6l0.2,2.4c0.6-0.8,1.3-1.5,2.2-2
			C236,12.1,236.9,11.9,237.9,11.9z"/>
		<path class="st1" d="M245.9,19.5c0-1,0.1-2.1,0.4-3.1c0.2-0.9,0.7-1.7,1.2-2.4c0.5-0.7,1.2-1.2,1.9-1.6c0.8-0.4,1.7-0.6,2.5-0.6
			c0.8,0,1.5,0.1,2.2,0.4c0.6,0.3,1.2,0.7,1.6,1.3l0.2-1.4h3.5v14.4c0,0.9-0.2,1.8-0.5,2.7c-0.3,0.8-0.8,1.4-1.4,2
			c-0.7,0.6-1.4,1-2.2,1.2c-0.9,0.3-1.9,0.4-2.9,0.4c-0.5,0-1-0.1-1.4-0.1c-0.5-0.1-1-0.2-1.5-0.4c-0.5-0.2-1-0.4-1.4-0.7
			c-0.4-0.3-0.8-0.7-1.2-1.1l1.7-2.3c0.5,0.5,1,1,1.7,1.3c0.6,0.3,1.3,0.4,2,0.4c1.1,0,1.9-0.3,2.5-0.9c0.6-0.6,0.9-1.4,0.9-2.4
			v-0.9c-0.4,0.5-1,0.9-1.6,1.2c-0.7,0.3-1.4,0.4-2.1,0.4c-0.9,0-1.7-0.2-2.5-0.6c-0.7-0.4-1.4-0.9-1.9-1.6c-0.5-0.7-1-1.5-1.2-2.4
			c-0.3-1-0.4-2-0.4-3L245.9,19.5z M249.7,19.8c0,0.6,0.1,1.2,0.2,1.7c0.1,0.5,0.3,1,0.6,1.4c0.2,0.4,0.6,0.7,1,0.9
			c0.4,0.2,0.9,0.4,1.4,0.3c0.6,0,1.2-0.1,1.7-0.4c0.4-0.3,0.8-0.6,1-1.1v-6.3c-0.2-0.5-0.6-0.8-1-1.1c-0.5-0.3-1.1-0.4-1.6-0.4
			c-0.5,0-1,0.1-1.4,0.4c-0.4,0.2-0.7,0.6-1,1c-0.3,0.4-0.5,0.9-0.6,1.4c-0.1,0.6-0.2,1.2-0.2,1.8L249.7,19.8z"/>
		<path class="st1" d="M23.1,27.1c-0.1-0.2-0.2-0.4-0.2-0.6c-0.1-0.2-0.1-0.5-0.2-0.8c-0.2,0.2-0.5,0.5-0.7,0.6
			c-0.3,0.2-0.6,0.4-0.9,0.5c-0.4,0.2-0.7,0.3-1.1,0.4c-0.4,0.1-0.9,0.1-1.3,0.1c-0.7,0-1.4-0.1-2.1-0.3c-0.6-0.2-1.2-0.5-1.6-0.9
			c-0.5-0.4-0.8-0.9-1.1-1.4c-0.3-0.6-0.4-1.2-0.4-1.8c0-1.6,0.6-2.8,1.8-3.6s2.9-1.3,5.2-1.3h2.1v-0.9c0-0.3,0-0.6-0.2-0.9
			s-0.3-0.6-0.5-0.8c-0.5-0.4-1.1-0.6-2-0.6c-0.8,0-1.3,0.2-1.7,0.5c-0.2,0.2-0.3,0.4-0.4,0.6c-0.1,0.2-0.1,0.5-0.1,0.7h-3.8
			c0-0.6,0.1-1.2,0.4-1.8c0.3-0.6,0.7-1.1,1.2-1.5c0.6-0.5,1.3-0.8,2-1c0.9-0.3,1.8-0.4,2.7-0.4c0.8,0,1.7,0.1,2.5,0.3
			c0.7,0.2,1.4,0.5,2,1c0.6,0.4,1,1,1.3,1.6c0.3,0.7,0.5,1.5,0.5,2.3v6.4c0,0.7,0,1.3,0.2,2c0.1,0.5,0.2,0.9,0.4,1.3v0.2L23.1,27.1z
			 M19.4,24.4c0.4,0,0.7,0,1.1-0.1c0.3-0.1,0.6-0.2,0.9-0.4c0.3-0.1,0.5-0.3,0.7-0.5c0.2-0.2,0.3-0.4,0.5-0.6v-2.6h-2
			c-0.5,0-1,0-1.5,0.2c-0.4,0.1-0.7,0.3-1,0.5c-0.3,0.2-0.5,0.5-0.6,0.7c-0.1,0.3-0.2,0.6-0.2,0.9c0,0.2,0,0.5,0.1,0.7
			s0.2,0.4,0.4,0.6C18.2,24.2,18.7,24.4,19.4,24.4z"/>
		<path class="st2" d="M20,2.9C10.6,2.9,2.9,10.6,2.9,20c0,9.4,7.7,17.1,17.1,17.1S37.1,29.4,37.1,20C37.1,10.6,29.4,2.9,20,2.9z
			 M0,20C0,9,9,0,20,0c11,0,20,9,20,20c0,11-9,20-20,20C9,40,0,31,0,20z"/>
	</g>
</g>
</svg>
