<?xml version="1.0" encoding="utf-8"?>
<!-- Generator: Adobe Illustrator 24.0.3, SVG Export Plug-In . SVG Version: 6.00 Build 0)  -->
<svg version="1.1" id="图层_1" xmlns="http://www.w3.org/2000/svg" xmlns:xlink="http://www.w3.org/1999/xlink" x="0px" y="0px"
	 viewBox="0 0 74 40" style="enable-background:new 0 0 74 40;" xml:space="preserve">
<style type="text/css">
	.st0{fill:#FFFFFF;}
</style>
<g>
	<path class="st0" d="M0.4,39.9C0.3,39.8,6,20.2,6.2,20c0.1-0.2,7.6-0.2,7.7,0c0,0.1-0.8,3.1-1.9,6.8s-1.9,6.8-1.9,6.9
		c0.1,0.2,2.5,0.2,2.7,0c0.2-0.2,4.8-16.3,4.7-16.5c0-0.1-2.3-0.1-5.2-0.1c-2.8,0-5.2,0-5.2-0.1c0-0.1,1.1-3.9,2.4-8.5l2.5-8.4
		l9.1,0c5,0,9.2,0,9.2,0.1c0.1,0.1-1.4,5.3-3.3,11.7c-1.9,6.4-4.4,15.3-5.7,19.7s-2.4,8.1-2.5,8.3C18.7,40,18.1,40,9.5,40
		C4.5,40,0.4,40,0.4,39.9L0.4,39.9z M19.4,10.8c0.1-0.2,1.3-4.1,1.3-4.4c0-0.2-0.2-0.2-1.3-0.2c-0.9,0-1.3,0-1.4,0.2
		c-0.1,0.2-1.3,4.1-1.3,4.4c0,0.2,0.2,0.2,1.3,0.2C18.9,10.9,19.3,10.9,19.4,10.8L19.4,10.8z M27.4,17c0-0.1,1.1-3.9,2.4-8.5
		l2.5-8.4l3.8,0c2.1,0,3.8,0,3.9,0.1c0.1,0.1-0.5,2.3-1.4,5.3c-0.8,2.8-1.5,5.3-1.5,5.4c0,0.2,0.2,0.2,1.4,0.2l1.4,0l1.6-5.3
		c0.9-2.9,1.6-5.4,1.7-5.4c0.1-0.2,7.4-0.2,7.5-0.1c0,0.1-1.1,3.9-2.4,8.5L45.8,17l-9.1,0C31.6,17.1,27.5,17.1,27.4,17L27.4,17z
		 M47.6,17c0-0.1,1.1-3.9,2.4-8.5l2.5-8.4l9.1,0c5,0,9.1,0,9.2,0.1c0,0.1-1,3.9-2.4,8.5L65.9,17l-3.8,0c-2.1,0-3.8,0-3.9-0.1
		s0.5-2.3,1.4-5.3c0.8-2.8,1.5-5.3,1.5-5.4c0-0.2-0.2-0.2-1.4-0.2l-1.4,0l-1.6,5.3c-0.9,2.9-1.6,5.4-1.7,5.4
		C55,17.1,47.7,17.2,47.6,17L47.6,17z M70.3,11.5c-0.5-0.4-0.5-0.9,0-2.8c0.4-1.3,0.6-1.8,0.8-2.1c0.1-0.1,0.3-0.3,0.5-0.3
		c0.2-0.1,0.4,0,0.6,0c0.2,0.1,0.4,0.2,0.5,0.3c0.1,0.2,0.2,0.3,0.3,0.5c0.1,0.7-0.8,3.8-1.2,4.3c-0.2,0.2-0.5,0.3-0.7,0.3
		C70.8,11.7,70.5,11.6,70.3,11.5z"/>
	<path class="st0" d="M30.4,18.9c-1.2,0-1.9,0.1-2.7,0.9c-1.1,1.2-1.4,3.1-1,4.5c0.6,1.6,2.3,2.1,3.1,2.4c-1.8-1.5-1.2-4.5,0.7-5.9
		h1.6c3.5,0,3.3-0.3,3.4,2.1h0c0.1-3.5,0-4-3.1-4C31.6,19,30.9,18.9,30.4,18.9L30.4,18.9z M36.5,25.8c-0.4,2.2-1.7,2.5-4.4,2.5h-8
		l-0.7,2.5h8.2C34.6,30.8,36.1,28.3,36.5,25.8L36.5,25.8z"/>
</g>
</svg>
