<?xml version="1.0" encoding="utf-8"?>
<!-- Generator: Adobe Illustrator 24.0.3, SVG Export Plug-In . SVG Version: 6.00 Build 0)  -->
<svg version="1.1" id="图层_1" xmlns="http://www.w3.org/2000/svg" xmlns:xlink="http://www.w3.org/1999/xlink" x="0px" y="0px"
	 viewBox="0 0 561 258" style="enable-background:new 0 0 561 258;" xml:space="preserve">
<style type="text/css">
	.st0{fill:#FFFFFF;}
</style>
<g>
	<path class="st0" d="M96.3,66.6l9.7,29.5l8.3-29.5h14.9l-15.4,49.7H98.7L87.9,84.2l-10.6,32.1H61.9L46.3,66.6h15.8L70.4,96
		l9.8-29.4L96.3,66.6z"/>
	<path class="st0" d="M180.7,102c-2.4,8.6-10.3,15.8-22.9,15.8c-13.7,0-25.9-9.8-25.9-26.5c0-16,11.9-26.2,24.8-26.2
		c15.4,0,24.9,9.5,24.9,25.5c0,1.6-0.1,3.1-0.3,4.7h-34.6c0.3,5.6,5.4,9.6,11.3,9.6c5.5,0,8.6-2.6,10-6.5L180.7,102z M166.9,85.5
		c-0.2-3.8-2.8-8.4-10-8.4c-6.4,0-9.6,4.7-9.9,8.4H166.9z"/>
	<path class="st0" d="M191.4,116.3V43.9h14.9v27.4c2.1-3.1,7.6-5.9,14.4-5.9c14.4,0,23.1,11,23.1,25.9c0,15.2-9.8,26.1-23.7,26.1
		c-6.6,0-11.7-2.9-14-6.7v5.6H191.4z M217.4,79.1c-5.9,0-11.3,3.9-11.3,12.3c0,8.2,5.4,12.4,11.3,12.4s11.2-4.1,11.2-12.4
		S223.3,79.1,217.4,79.1z"/>
	<path class="st0" d="M263.8,77.7l16-13.1h-27.1V51.4h46.8v12.2l-16,12.4c10.4,0.7,18.4,9.4,18.2,19.8c0,11.5-9.5,21.9-25.5,21.9
		c-15.1,0-24.7-9.7-25.7-20.8l15.2-2.8c0.2,5.7,4.3,10.2,10.4,10.2s9.7-4.1,9.7-8.9c0-6.2-4.8-8.8-9.4-8.8c-2,0-4,0.6-5.8,1.5
		L263.8,77.7z"/>
	<path class="st0" d="M319.7,96.7c5.6,0,10.2,4.6,10.3,10.2c0,5.7-4.6,10.2-10.2,10.2s-10.2-4.6-10.2-10.2l0,0
		C309.5,101.3,314.1,96.7,319.7,96.7z"/>
	<path class="st0" d="M343.5,61c4.3-6.5,11.5-11.1,22-11.1s17.8,4.6,22.1,11.1c4.5,6.8,5.7,14.9,5.7,22.9s-1.2,16.1-5.7,22.9
		c-4.3,6.4-11.5,11.1-22.1,11.1s-17.7-4.7-22-11.1c-4.5-6.8-5.7-14.9-5.7-22.9S339,67.8,343.5,61z M356,98c1.8,3.6,4.7,6,9.5,6
		s7.7-2.4,9.5-6c1.9-3.8,2.5-8.9,2.5-14.1s-0.6-10.3-2.5-14.1c-1.8-3.6-4.6-6-9.5-6s-7.7,2.4-9.5,6c-1.8,3.8-2.4,8.9-2.4,14.1
		S354.2,94.2,356,98z"/>
	<path class="st0" d="M51.9,208.3v-72.4h14.9v27.4c2.1-3.1,7.6-5.9,14.4-5.9c14.4,0,23.1,11,23.1,25.9c0,15.2-9.8,26.1-23.7,26.1
		c-6.6,0-11.7-2.9-14-6.7v5.6L51.9,208.3z M77.9,171.1c-5.9,0-11.3,3.9-11.3,12.3c0,8.2,5.4,12.4,11.3,12.4s11.2-4.1,11.2-12.4
		S83.8,171.1,77.9,171.1z"/>
	<path class="st0" d="M163.3,183.4c0,15.4-11.5,26.4-26.4,26.4s-26.4-11-26.4-26.4s11.6-26.3,26.4-26.3S163.3,168,163.3,183.4z
		 M148.1,183.4c0-8.4-5.4-12.3-11.2-12.3s-11.2,3.9-11.2,12.3s5.5,12.4,11.2,12.4S148.1,191.8,148.1,183.4z"/>
	<path class="st0" d="M222.3,183.4c0,15.4-11.5,26.4-26.4,26.4s-26.4-11-26.4-26.4s11.6-26.3,26.4-26.3S222.3,168,222.3,183.4z
		 M207.1,183.4c0-8.4-5.4-12.3-11.2-12.3s-11.2,3.9-11.2,12.3s5.5,12.4,11.2,12.4S207.1,191.8,207.1,183.4z"/>
	<path class="st0" d="M250.2,158.6h9.7v13.3h-9.7v18.6c0,4.1,2.2,5.2,5.5,5.2c1.3,0,2.7-0.2,4-0.5v12.6c-0.6,0.3-3.1,1.4-7.9,1.4
		c-10.3,0-16.6-6.1-16.6-16v-21.3h-8.8v-13.3h2.5c5.2,0,7.7-3.5,7.7-8.1v-6.4h13.6L250.2,158.6z"/>
	<path class="st0" d="M281.8,183.5c0,7.9,5.3,12.3,11.6,12.3c4.7,0.2,9-2.9,10.3-7.4l13.4,4.1c-2.2,8.7-10.4,17.3-23.7,17.3
		c-14.8,0-26.7-10.9-26.7-26.3s11.6-26.4,26.2-26.4c13.7,0,21.7,8.4,23.9,17.3l-13.6,4.1c-1.1-4.5-5.3-7.6-10-7.4
		C286.9,171.1,281.8,175.5,281.8,183.5L281.8,183.5z"/>
	<path class="st0" d="M338,179.6l11.7-1.8c2.7-0.4,3.6-1.7,3.6-3.4c0-2.9-2.5-5.4-7.3-5.4c-5.3,0-8.2,3.6-8.5,7.3l-13.2-2.7
		c0.6-7.1,7.2-16.5,21.8-16.5c16.1,0,22,9,22,19.2v24.3c0,2.6,0.2,5.2,0.6,7.7H355c-0.4-1.8-0.6-3.7-0.5-5.6c-2.6,4.2-7.4,7-14,7
		c-10.9,0-17.2-7.2-17.2-15.1C323.3,185.8,329.8,180.8,338,179.6L338,179.6z M353.3,188.8v-2.2l-9.4,1.5c-3.2,0.5-5.6,2-5.6,5.5
		c0,2.6,1.7,5.1,5.9,5.1C348.7,198.7,353.3,196.5,353.3,188.8L353.3,188.8z"/>
	<path class="st0" d="M379.6,208.3v-49.7h14.5v5.7c2.5-4.4,8.9-7.2,14.3-7.2c7.1,0,12.2,2.9,14.7,7.8c3.9-5.6,8.7-7.8,15.4-7.8
		c9.4,0,18.4,5.5,18.4,19v32.2h-14.7v-28.8c0-4.7-2.5-8.4-7.9-8.4s-8.3,4.1-8.3,8.5v28.7h-15v-28.8c0-4.7-2.5-8.4-8-8.4
		c-5.3,0-8.2,4.1-8.2,8.6v28.6L379.6,208.3z"/>
	<path class="st0" d="M468.7,227.3v-68.7h14.7v5.1c2.1-3.2,7.5-6.3,14.6-6.3c14.4,0,23.1,11,23.1,25.9c0,15.2-9.8,26.1-23.7,26.1
		c-6.4,0-11.2-2.2-13.5-5v22.9H468.7z M494.9,171.1c-5.9,0-11.2,4-11.2,12.3s5.3,12.4,11.2,12.4s11.3-4.1,11.3-12.4
		S500.9,171.1,494.9,171.1z"/>
</g>
</svg>
